HIERARCHY
ROOT Hips
{
    OFFSET 0.000000 0.000000 0.000000
    CHANNELS 6 Xposition Yposition Zposition Zrotation Xrotation Yrotation
    JOINT Spine
    {
        OFFSET 0.000002 7.901014 -0.000008
        CHANNELS 3 Zrotation Xrotation Yrotation
        JOINT Spine1
        {
            OFFSET 0.000005 20.955456 -0.000012
            CHANNELS 3 Zrotation Xrotation Yrotation
            JOINT Neck
            {
                OFFSET 0.000008 22.118921 -0.000034
                CHANNELS 3 Zrotation Xrotation Yrotation
                JOINT Head
                {
                    OFFSET 0.000001 14.105339 1.902230
                    CHANNELS 3 Zrotation Xrotation Yrotation
                    End Site
                    {
                        OFFSET 0.000000 19.022141 0.000000
                    }
                }
            }
            JOINT LeftShoulder
            {
                OFFSET 3.797831 16.121206 -0.677298
                CHANNELS 3 Zrotation Xrotation Yrotation
                JOINT LeftArm
                {
                    OFFSET 11.576590 -0.000001 -0.000012
                    CHANNELS 3 Zrotation Xrotation Yrotation
                    JOINT LeftForeArm
                    {
                        OFFSET 29.906412 0.000000 -0.000013
                        CHANNELS 3 Zrotation Xrotation Yrotation
                        JOINT LeftHand
                        {
                            OFFSET 24.318325 0.000007 0.000004
                            CHANNELS 3 Zrotation Xrotation Yrotation
                            JOINT LeftHandThumb1
                            {
                                OFFSET 1.987815 -2.258880 3.162413
                                CHANNELS 3 Zrotation Xrotation Yrotation
                                JOINT LeftHandThumb2
                                {
                                    OFFSET 3.002297 0.000003 0.000002
                                    CHANNELS 3 Zrotation Xrotation Yrotation
                                    JOINT LeftHandThumb3
                                    {
                                        OFFSET 2.566087 -0.000008 -0.000007
                                        CHANNELS 3 Zrotation Xrotation Yrotation
                                        End Site
                                        {
                                            OFFSET 2.440626 0.000000 0.000000
                                        }
                                    }
                                }
                            }
                            JOINT LeftHandIndex1
                            {
                                OFFSET 8.131966 0.000004 3.162448
                                CHANNELS 3 Zrotation Xrotation Yrotation
                                JOINT LeftHandIndex2
                                {
                                    OFFSET 4.517758 0.000006 0.000019
                                    CHANNELS 3 Zrotation Xrotation Yrotation
                                    JOINT LeftHandIndex3
                                    {
                                        OFFSET 2.258881 -0.000003 -0.000013
                                        CHANNELS 3 Zrotation Xrotation Yrotation
                                        End Site
                                        {
                                            OFFSET 2.148437 0.000000 0.000000
                                        }
                                    }
                                }
                            }
                            JOINT LeftHandMiddle1
                            {
                                OFFSET 8.131964 0.000004 1.048138
                                CHANNELS 3 Zrotation Xrotation Yrotation
                                JOINT LeftHandMiddle2
                                {
                                    OFFSET 4.969532 0.000000 -0.000012
                                    CHANNELS 3 Zrotation Xrotation Yrotation
                                    JOINT LeftHandMiddle3
                                    {
                                        OFFSET 2.710657 0.000001 0.000003
                                        CHANNELS 3 Zrotation Xrotation Yrotation
                                        End Site
                                        {
                                            OFFSET 2.578118 0.000000 0.000000
                                        }
                                    }
                                }
                            }
                            JOINT LeftHandRing1
                            {
                                OFFSET 7.680191 0.000001 -1.048140
                                CHANNELS 3 Zrotation Xrotation Yrotation
                                JOINT LeftHandRing2
                                {
                                    OFFSET 4.517759 0.000003 0.000020
                                    CHANNELS 3 Zrotation Xrotation Yrotation
                                    JOINT LeftHandRing3
                                    {
                                        OFFSET 2.258881 -0.000001 -0.000014
                                        CHANNELS 3 Zrotation Xrotation Yrotation
                                        End Site
                                        {
                                            OFFSET 2.148437 0.000000 0.000000
                                        }
                                    }
                                }
                            }
                            JOINT LeftHandPinky1
                            {
                                OFFSET 7.228409 0.000003 -3.162421
                                CHANNELS 3 Zrotation Xrotation Yrotation
                                JOINT LeftHandPinky2
                                {
                                    OFFSET 3.614206 0.000002 -0.000013
                                    CHANNELS 3 Zrotation Xrotation Yrotation
                                    JOINT LeftHandPinky3
                                    {
                                        OFFSET 1.807102 -0.000001 0.000017
                                        CHANNELS 3 Zrotation Xrotation Yrotation
                                        End Site
                                        {
                                            OFFSET 1.718745 0.000000 0.000000
                                        }
                                    }
                                }
                            }
                        }
                    }
                }
            }
            JOINT RightShoulder
            {
                OFFSET -3.797831 16.121195 -0.677300
                CHANNELS 3 Zrotation Xrotation Yrotation
                JOINT RightArm
                {
                    OFFSET -11.576584 0.000002 -0.000000
                    CHANNELS 3 Zrotation Xrotation Yrotation
                    JOINT RightForeArm
                    {
                        OFFSET -29.906401 0.000003 0.000007
                        CHANNELS 3 Zrotation Xrotation Yrotation
                        JOINT RightHand
                        {
                            OFFSET -24.318319 0.000002 0.000006
                            CHANNELS 3 Zrotation Xrotation Yrotation
                            JOINT RightHandThumb1
                            {
                                OFFSET -1.987803 -2.258882 3.162428
                                CHANNELS 3 Zrotation Xrotation Yrotation
                                JOINT RightHandThumb2
                                {
                                    OFFSET -3.002286 0.000009 -0.000002
                                    CHANNELS 3 Zrotation Xrotation Yrotation
                                    JOINT RightHandThumb3
                                    {
                                        OFFSET -2.566107 -0.000001 0.000003
                                        CHANNELS 3 Zrotation Xrotation Yrotation
                                        End Site
                                        {
                                            OFFSET -2.440626 0.000000 0.000000
                                        }
                                    }
                                }
                            }
                            JOINT RightHandIndex1
                            {
                                OFFSET -8.131948 0.000001 3.162436
                                CHANNELS 3 Zrotation Xrotation Yrotation
                                JOINT RightHandIndex2
                                {
                                    OFFSET -4.517740 0.000001 0.000001
                                    CHANNELS 3 Zrotation Xrotation Yrotation
                                    JOINT RightHandIndex3
                                    {
                                        OFFSET -2.258870 0.000000 0.000000
                                        CHANNELS 3 Zrotation Xrotation Yrotation
                                        End Site
                                        {
                                            OFFSET -2.148437 0.000000 0.000000
                                        }
                                    }
                                }
                            }
                            JOINT RightHandMiddle1
                            {
                                OFFSET -8.131986 -0.000009 1.048120
                                CHANNELS 3 Zrotation Xrotation Yrotation
                                JOINT RightHandMiddle2
                                {
                                    OFFSET -4.969533 0.000001 0.000001
                                    CHANNELS 3 Zrotation Xrotation Yrotation
                                    JOINT RightHandMiddle3
                                    {
                                        OFFSET -2.710663 0.000001 0.000001
                                        CHANNELS 3 Zrotation Xrotation Yrotation
                                        End Site
                                        {
                                            OFFSET -2.578118 0.000000 0.000000
                                        }
                                    }
                                }
                            }
                            JOINT RightHandRing1
                            {
                                OFFSET -7.680199 -0.000003 -1.048116
                                CHANNELS 3 Zrotation Xrotation Yrotation
                                JOINT RightHandRing2
                                {
                                    OFFSET -4.517741 0.000001 0.000001
                                    CHANNELS 3 Zrotation Xrotation Yrotation
                                    JOINT RightHandRing3
                                    {
                                        OFFSET -2.258870 0.000000 0.000001
                                        CHANNELS 3 Zrotation Xrotation Yrotation
                                        End Site
                                        {
                                            OFFSET -2.148437 0.000000 0.000000
                                        }
                                    }
                                }
                            }
                            JOINT RightHandPinky1
                            {
                                OFFSET -7.228399 0.000005 -3.162425
                                CHANNELS 3 Zrotation Xrotation Yrotation
                                JOINT RightHandPinky2
                                {
                                    OFFSET -3.614201 -0.000004 -0.000002
                                    CHANNELS 3 Zrotation Xrotation Yrotation
                                    JOINT RightHandPinky3
                                    {
                                        OFFSET -1.807124 -0.000005 -0.000003
                                        CHANNELS 3 Zrotation Xrotation Yrotation
                                        End Site
                                        {
                                            OFFSET -1.718745 0.000000 0.000000
                                        }
                                    }
                                }
                            }
                        }
                    }
                }
            }
        }
    }
    JOINT LeftUpLeg
    {
        OFFSET 9.511073 0.000001 -0.000010
        CHANNELS 3 Zrotation Xrotation Yrotation
        JOINT LeftLeg
        {
            OFFSET 0.000001 -43.875637 0.000009
            CHANNELS 3 Zrotation Xrotation Yrotation
            JOINT LeftFoot
            {
                OFFSET 0.000002 -35.354156 -0.000001
                CHANNELS 3 Zrotation Xrotation Yrotation
                JOINT LeftToeBase
                {
                    OFFSET -0.000003 -6.182194 14.266616
                    CHANNELS 3 Zrotation Xrotation Yrotation
                    End Site
                    {
                        OFFSET 0.000000 0.000000 3.804428
                    }
                }
            }
        }
    }
    JOINT RightUpLeg
    {
        OFFSET -9.511073 -0.000001 0.000010
        CHANNELS 3 Zrotation Xrotation Yrotation
        JOINT RightLeg
        {
            OFFSET 0.000000 -43.875641 -0.000001
            CHANNELS 3 Zrotation Xrotation Yrotation
            JOINT RightFoot
            {
                OFFSET 0.000001 -35.354156 -0.000013
                CHANNELS 3 Zrotation Xrotation Yrotation
                JOINT RightToeBase
                {
                    OFFSET -0.000003 -6.182194 14.266583
                    CHANNELS 3 Zrotation Xrotation Yrotation
                    End Site
                    {
                        OFFSET 0.000000 0.000000 3.804428
                    }
                }
            }
        }
    }
}
MOTION
Frames:    4
Frame Time:    0.002778
32.478733    90.208244    606.503479    4.417080    -5.158340    -153.547653    -0.150561    5.858989    1.808629    -0.752804    5.858508    1.870099    3.598977    -1.147008    -20.132969    3.598977    -1.147010    -20.132961    5.668918    -2.093671    -0.346298    -60.591545    13.481252    -24.128208    -28.352974    -3.884154    -52.286900    11.735699    1.272627    7.331764    47.448204    38.866428    -34.355030    -34.999992    0.000002    -0.000001    -0.000000    0.000000    -0.000000    -0.000000    10.000002    -0.000000    -0.000000    0.000000    -0.000000    -0.000000    0.000000    -0.000000    -0.000000    0.000000    -0.000000    -0.000000    0.000000    -0.000000    -0.000000    0.000000    -0.000000    -0.000000    0.000000    -0.000000    -0.000000    0.000000    -0.000000    -0.000000    0.000000    -0.000000    0.000003    -9.999999    0.000000    -0.000000    0.000000    -0.000000    -0.000000    0.000000    -0.000000    -5.473029    0.412162    2.268236    57.534687    -16.283335    22.472345    10.439570    21.830309    76.148102    -63.192417    16.950680    -8.441833    -47.448223    38.866428    34.355038    35.000004    0.000004    0.000001    -0.000000    0.000000    -0.000000    -0.000003    9.999998    0.000005    -0.000000    0.000000    -0.000000    -0.000000    0.000000    -0.000000    -0.000000    0.000000    -0.000000    -0.000000    0.000000    -0.000000    -0.000000    0.000000    -0.000000    -0.000000    0.000000    -0.000000    -0.000000    0.000000    -0.000000    -0.000000    0.000000    -0.000000    -0.000004    -10.000005    -0.000000    -0.000000    0.000000    -0.000000    -0.000000    0.000000    -0.000000    15.120736    -25.853539    0.014887    -0.000001    37.150661    0.000003    -9.345630    -17.173595    -1.259244    -0.000000    -0.340237    -0.000000    -14.495280    -24.607958    -4.238375    -0.000000    40.799709    -0.000001    15.679877    -14.890268    -16.674152    -0.000000    -3.302211    0.000000    
32.476242    90.220009    606.507996    4.418664    -5.144685    -153.584793    -0.153253    5.850543    1.772103    -0.766269    5.850045    1.834590    3.602174    -1.169965    -20.088671    3.602174    -1.169963    -20.088671    5.648168    -2.107231    -0.351931    -60.530815    13.421807    -24.187809    -28.407921    -3.849052    -52.383884    11.743526    1.273686    7.334250    47.448208    38.866428    -34.355034    -34.999996    0.000002    -0.000003    -0.000000    0.000000    -0.000000    0.000000    10.000002    -0.000003    -0.000000    0.000000    -0.000000    -0.000000    0.000000    -0.000000    -0.000000    0.000000    -0.000000    -0.000000    0.000000    -0.000000    -0.000000    0.000000    -0.000000    -0.000000    0.000000    -0.000000    -0.000000    0.000000    -0.000000    -0.000000    0.000000    -0.000000    -0.000000    -10.000001    -0.000002    -0.000000    0.000000    -0.000000    -0.000000    0.000000    -0.000000    -5.511570    0.462657    2.258354    57.635815    -15.943630    22.192408    10.442160    21.873131    76.098770    -63.223660    16.977549    -8.443026    -47.448208    38.866428    34.355030    34.999992    0.000002    0.000003    -0.000000    0.000000    -0.000000    -0.000001    9.999997    -0.000010    -0.000000    0.000000    -0.000000    -0.000000    0.000000    -0.000000    -0.000000    0.000000    -0.000000    -0.000000    0.000000    -0.000000    -0.000000    0.000000    -0.000000    -0.000000    0.000000    -0.000000    -0.000000    0.000000    -0.000000    -0.000000    0.000000    -0.000000    -0.000003    -9.999997    -0.000005    -0.000000    0.000000    -0.000000    -0.000000    0.000000    -0.000000    15.132854    -25.803404    0.020856    0.000000    37.097736    -0.000001    -9.375901    -17.172840    -1.243644    -0.000000    -0.336716    -0.000000    -14.477161    -24.574551    -4.222983    0.000003    40.727699    -0.000002    15.682497    -14.870028    -16.651234    0.000000    -3.305584    -0.000000    
32.476414    90.231400    606.516052    4.420319    -5.132860    -153.628265    -0.156766    5.843629    1.739222    -0.783831    5.843109    1.803063    3.606820    -1.194539    -20.037493    3.606820    -1.194537    -20.037491    5.626259    -2.122561    -0.355954    -60.471348    13.352962    -24.247177    -28.447071    -3.814729    -52.480976    11.754075    1.279991    7.359269    47.448208    38.866428    -34.355026    -34.999992    0.000002    -0.000002    -0.000000    0.000000    -0.000000    0.000003    10.000001    -0.000000    -0.000000    0.000000    -0.000000    -0.000000    0.000000    -0.000000    -0.000000    0.000000    -0.000000    -0.000000    0.000000    -0.000000    -0.000000    0.000000    -0.000000    -0.000000    0.000000    -0.000000    -0.000000    0.000000    -0.000000    -0.000000    0.000000    -0.000000    -0.000003    -9.999999    -0.000000    -0.000000    0.000000    -0.000000    -0.000000    0.000000    -0.000000    -5.552866    0.501737    2.252585    57.742836    -15.618614    21.913263    10.433668    21.878929    76.032692    -63.252758    17.032356    -8.457992    -47.448208    38.866428    34.355030    35.000004    0.000004    -0.000001    -0.000000    0.000000    -0.000000    0.000003    9.999995    0.000001    -0.000000    0.000000    -0.000000    -0.000000    0.000000    -0.000000    -0.000000    0.000000    -0.000000    -0.000000    0.000000    -0.000000    -0.000000    0.000000    -0.000000    -0.000000    0.000000    -0.000000    -0.000000    0.000000    -0.000000    -0.000000    0.000000    -0.000000    -0.000001    -9.999992    -0.000001    -0.000000    0.000000    -0.000000    -0.000000    0.000000    -0.000000    15.150220    -25.755762    0.035629    0.000000    37.044640    -0.000001    -9.411410    -17.168400    -1.226175    -0.000000    -0.335552    -0.000000    -14.457318    -24.546623    -4.202623    0.000000    40.653416    -0.000000    15.683171    -14.848985    -16.627996    0.000000    -3.308565    0.000000    
32.476788    90.242317    606.525391    4.421384    -5.123997    -153.673859    -0.160245    5.837380    1.707778    -0.801220    5.836833    1.772965    3.610040    -1.219235    -19.979464    3.610039    -1.219232    -19.979464    5.603034    -2.138747    -0.359175    -60.414150    13.286238    -24.307240    -28.512396    -3.777354    -52.596317    11.740976    1.277356    7.358119    47.448219    38.866444    -34.355042    -34.999996    -0.000003    0.000000    -0.000000    0.000000    -0.000000    -0.000000    10.000001    0.000005    -0.000000    0.000000    -0.000000    -0.000000    0.000000    -0.000000    -0.000000    0.000000    -0.000000    -0.000000    0.000000    -0.000000    -0.000000    0.000000    -0.000000    -0.000000    0.000000    -0.000000    -0.000000    0.000000    -0.000000    -0.000000    0.000000    -0.000000    0.000000    -10.000003    0.000000    -0.000000    0.000000    -0.000000    -0.000000    0.000000    -0.000000    -5.597056    0.544045    2.245253    57.846867    -15.274395    21.636522    10.432908    21.906498    75.978897    -63.279762    17.050695    -8.456590    -47.448227    38.866432    34.355042    35.000000    -0.000001    0.000005    -0.000000    0.000000    -0.000000    0.000001    10.000000    0.000008    -0.000000    0.000000    -0.000000    -0.000000    0.000000    -0.000000    -0.000000    0.000000    -0.000000    -0.000000    0.000000    -0.000000    -0.000000    0.000000    -0.000000    -0.000000    0.000000    -0.000000    -0.000000    0.000000    -0.000000    -0.000000    0.000000    -0.000000    0.000012    -9.999999    0.000016    -0.000000    0.000000    -0.000000    -0.000000    0.000000    -0.000000    15.165576    -25.709984    0.049778    0.000004    36.989449    -0.000001    -9.440162    -17.159428    -1.201800    -0.000001    -0.336970    -0.000002    -14.438484    -24.523888    -4.182687    0.000001    40.580151    -0.000002    15.677671    -14.826094    -16.609320    0.000000    -3.312454    0.000000    
